<?xml version="1.0" encoding="UTF-8"?>
<svg width="1200pt" height="1200pt" version="1.1" viewBox="0 0 1200 1200" xmlns="http://www.w3.org/2000/svg">
 <path d="m275.05 290.16c-12.52 0-22.672 10.148-22.672 22.672 0 12.52 10.148 22.672 22.672 22.672h90.449c37.523 92.934 74.484 186.04 111.7 279.14l-34.242 82.418c-2.8672 6.8711-2.0625 15.156 2.0781 21.348 4.1406 6.1875 11.492 10.094 18.938 10.062h377.86c11.977 0.16797 22.992-10.691 22.992-22.672s-11.016-22.84-22.992-22.672h-343.85l19.602-46.762 363.92-29.047c9.5273-0.75 18.148-8.168 20.309-17.477l45.344-196.48c2.9648-13.234-8.6367-27.676-22.199-27.629h-498.54l-24.562-61.402c-3.3633-8.3125-12.051-14.168-21.02-14.168zm169.56 120.91h140.28v68.016h-113.12zm185.62 0h90.688v68.016h-90.688zm136.03 0h130.12l-15.586 68.016h-114.54zm-276.31 113.36h94.938v61.164l-68.25 5.4336zm140.28 0h90.688v50.301l-90.688 7.3203zm136.03 0h103.91l-8.9727 39.203-94.938 7.5586zm-219.16 234.27c-41.469 0-75.57 34.102-75.57 75.57s34.102 75.57 75.57 75.57 75.57-34.102 75.57-75.57-34.102-75.57-75.57-75.57zm211.6 0c-41.469 0-75.57 34.102-75.57 75.57s34.102 75.57 75.57 75.57 75.57-34.102 75.57-75.57-34.102-75.57-75.57-75.57zm-211.6 45.344c16.965 0 30.23 13.266 30.23 30.23 0 16.961-13.266 30.23-30.23 30.23-16.961 0-30.23-13.266-30.23-30.23 0-16.965 13.266-30.23 30.23-30.23zm211.6 0c16.961 0 30.23 13.266 30.23 30.23 0 16.961-13.266 30.23-30.23 30.23s-30.23-13.266-30.23-30.23c0-16.965 13.266-30.23 30.23-30.23z" fill="#9b9b9b"/>
</svg>
